<svg xmlns="http://www.w3.org/2000/svg" viewBox="0 0 256 256" role="img" aria-label="OHGS Hardware">
  <defs>
    <linearGradient id="g1" x1="32" y1="28" x2="172" y2="176" gradientUnits="userSpaceOnUse">
      <stop offset="0" stop-color="#1d5fa7"/>
      <stop offset="1" stop-color="#0b2244"/>
    </linearGradient>
    <linearGradient id="g2" x1="138" y1="62" x2="220" y2="170" gradientUnits="userSpaceOnUse">
      <stop offset="0" stop-color="#ff5a5a"/>
      <stop offset="1" stop-color="#c81e2b"/>
    </linearGradient>
  </defs>
  <g>
    <path d="M27 111 128 28l101 83v8c0 3-2 6-6 6h-15v72c0 7-6 13-13 13H61c-7 0-13-6-13-13v-72H33c-4 0-6-3-6-6z" fill="url(#g1)"/>
    <path d="M128 28 229 111v8c0 3-2 6-6 6h-4l-91-75z" fill="url(#g2)"/>
    <rect x="60" y="114" width="42" height="80" rx="5" fill="#ffffff"/>
    <rect x="113" y="95" width="36" height="99" rx="5" fill="#ffffff"/>
    <rect x="159" y="121" width="29" height="73" rx="5" fill="#ffffff"/>
    <rect x="74" y="126" width="15" height="15" rx="2" fill="#0f3f76"/>
    <rect x="123" y="107" width="17" height="17" rx="2" fill="#0f3f76"/>
    <rect x="123" y="132" width="17" height="17" rx="2" fill="#0f3f76"/>
    <rect x="123" y="157" width="17" height="37" rx="2" fill="#0f3f76"/>
    <rect x="169" y="133" width="10" height="61" rx="2" fill="#d73036"/>
    <path d="M83 150c12 0 17 9 17 20v24H66v-24c0-11 5-20 17-20z" fill="#0f3f76"/>
    <path d="M188 86h16v19h-16z" fill="#d73036"/>
    <path d="M145 65h33v129h-33z" fill="url(#g2)" opacity=".14"/>
    <path d="M46 200h164" stroke="#d9ecff" stroke-width="9" stroke-linecap="round"/>
    <text x="128" y="232" text-anchor="middle" font-family="Arial, Helvetica, sans-serif" font-size="30" font-weight="900" letter-spacing="1.5" fill="#d7262f">OHGS</text>
  </g>
</svg>